<?xml version="1.0" encoding="UTF-8"?>
<svg xmlns="http://www.w3.org/2000/svg" xmlns:xlink="http://www.w3.org/1999/xlink" width="128px" height="128px" viewBox="0 0 128 128" version="1.1">
<g id="surface67924">
<path style=" stroke:none;fill-rule:nonzero;fill:rgb(0%,0%,0%);fill-opacity:1;" d="M 37 4 L 73 4 L 73 10 L 85 10 L 85 16 L 91 16 L 91 22 L 97 22 L 97 28 L 103 28 L 103 40 L 109 40 L 109 64 L 103 64 L 103 76 L 97 76 L 97 82 L 91 82 L 91 88 L 85 88 L 85 94 L 73 94 L 73 106 L 67 106 L 67 100 L 61 100 L 61 106 L 55 106 L 55 100 L 49 100 L 49 94 L 37 94 L 37 88 L 31 88 L 31 82 L 25 82 L 25 76 L 19 76 L 19 64 L 37 64 L 37 58 L 49 58 L 49 52 L 55 52 L 55 34 L 49 34 L 49 22 L 43 22 L 43 16 L 37 16 Z M 37 4 "/>
<path style=" stroke:none;fill-rule:nonzero;fill:rgb(100%,28.627452%,29.019609%);fill-opacity:1;" d="M 43 10 L 43 16 L 49 16 L 49 22 L 55 22 L 55 34 L 61 34 L 61 52 L 55 52 L 55 58 L 61 58 L 61 70 L 79 70 L 79 64 L 85 64 L 85 58 L 91 58 L 91 64 L 85 64 L 85 70 L 79 70 L 79 76 L 61 76 L 61 70 L 55 70 L 55 58 L 49 58 L 49 64 L 37 64 L 37 70 L 25 70 L 25 76 L 31 76 L 31 82 L 37 82 L 37 88 L 49 88 L 49 94 L 73 94 L 73 88 L 85 88 L 85 82 L 91 82 L 91 76 L 97 76 L 97 64 L 103 64 L 103 40 L 97 40 L 97 28 L 91 28 L 91 22 L 85 22 L 85 16 L 73 16 L 73 10 Z M 67 34 L 73 34 L 73 52 L 67 52 Z M 79 34 L 85 34 L 85 52 L 79 52 Z M 79 34 "/>
<path style=" stroke:none;fill-rule:nonzero;fill:rgb(54.901963%,34.901962%,9.411765%);fill-opacity:1;" d="M 25 94 L 43 94 L 43 100 L 49 100 L 49 106 L 79 106 L 79 100 L 85 100 L 85 94 L 103 94 L 103 100 L 109 100 L 109 106 L 103 106 L 103 112 L 97 112 L 97 118 L 79 118 L 79 124 L 49 124 L 49 118 L 31 118 L 31 112 L 25 112 L 25 106 L 19 106 L 19 100 L 25 100 Z M 25 94 "/>
<path style=" stroke:none;fill-rule:nonzero;fill:rgb(87.058824%,63.529414%,22.352941%);fill-opacity:1;" d="M 37 106 L 37 112 L 43 112 L 43 106 Z M 85 106 L 85 112 L 91 112 L 91 106 Z M 55 112 L 55 118 L 61 118 L 61 112 Z M 67 112 L 67 118 L 73 118 L 73 112 Z M 67 112 "/>
<path style=" stroke:none;fill-rule:nonzero;fill:rgb(100%,85.882354%,12.941177%);fill-opacity:1;" d="M 37 100 L 37 106 L 43 106 L 43 100 Z M 43 106 L 43 112 L 49 112 L 49 106 Z M 49 112 L 49 118 L 55 118 L 55 112 Z M 37 106 L 31 106 L 31 112 L 37 112 Z M 85 100 L 85 106 L 91 106 L 91 100 Z M 91 106 L 91 112 L 97 112 L 97 106 Z M 85 106 L 79 106 L 79 112 L 85 112 Z M 79 112 L 73 112 L 73 118 L 79 118 Z M 61 106 L 61 118 L 67 118 L 67 106 Z M 61 106 "/>
<path style=" stroke:none;fill-rule:nonzero;fill:rgb(100%,98.431373%,0%);fill-opacity:1;" d="M 25 100 L 25 106 L 37 106 L 37 100 Z M 61 100 L 61 106 L 67 106 L 67 100 Z M 91 100 L 91 106 L 103 106 L 103 100 Z M 91 100 "/>
</g>
</svg>
